<?xml version="1.0" standalone="no"?>
<!DOCTYPE svg PUBLIC "-//W3C//DTD SVG 1.1//EN" "http://www.w3.org/Graphics/SVG/1.1/DTD/svg11.dtd">
<svg xmlns="http://www.w3.org/2000/svg">
<defs>
<font id="IBMPlexMono" horiz-adv-x="600"><font-face font-family="IBM Plex Mono SemiBold" units-per-em="1000" panose-1="2 11 7 9 5 2 3 0 2 3" ascent="1025" descent="-275" alphabetic="0"></font-face>
<glyph unicode=" " glyph-name="space"></glyph>
<glyph unicode="!" glyph-name="exclam" d="M272 240L268 493L302 698H441L407 493L318 240H272ZM257 -11Q213 -11 194 5T175 46Q175 52 176 61T181 90Q186 119 208 139T278 160Q322 160 341 144T360 103Q360 97 359 88T354 59Q349 30 327 10T257 -11Z"></glyph>
<glyph unicode="&quot;" glyph-name="quotedbl" d="M425 429L476 740H590L539 429H425ZM376 429L427 740H541L490 429H376Z"></glyph>
<glyph unicode="#" glyph-name="numbersign" d="M119 202H3L19 296H151L187 402H71L87 496H219L289 698H391L152 0H50L119 202ZM480 698H582L513 496H629L613 402H481L445 296H561L545 202H413L343 0H241L480 698Z"></glyph>
<glyph unicode="$" glyph-name="dollar" d="M214 -8Q147 1 97 30T20 103L101 182Q126 146 161 125T238 96L274 309L255 314Q94 356 94 490Q94 537 110 575T158 642T233 688T333 709L350 811H447L429 704Q485 693 525 667T589 606L507 530Q487 557 463 574T404
598L371 402L389 397Q467 375 510 334T554 222Q554 174 538 133T490 62T413 13T310 -11L293 -113H196L214 -8ZM218 503Q218 471 236 454T293 426L322 600Q271 593 245 567T218 503ZM428 209Q428 239 410 257T351 287L321 97Q373 106 400 135T428 209Z"></glyph>
<glyph unicode="%" glyph-name="percent" d="M189 344Q125 344 90 382T54 490Q54 539 67 579T104 649T161 694T236 710Q300 710 335 672T370 565Q370 516 357 476T320 406T263 360T189 344ZM195 420Q230 420 246 443T269 500Q273 523 276 544T280 576Q280 634
230 634Q194 634 178 612T156 555Q152 532 148 511T144 478Q144 420 195 420ZM568 698H667L464 398H365L568 698ZM169 300H268L65 0H-34L169 300ZM397 -12Q333 -12 298 26T263 133Q263 182 276 222T313 292T370 338T444 354Q508 354 543 316T579 208Q579 159 566
119T528 49T471 4T397 -12ZM403 64Q439 64 455 86T477 143Q481 166 485 187T489 220Q489 278 438 278Q403 278 387 255T364 198Q360 175 357 154T353 122Q353 64 403 64Z"></glyph>
<glyph unicode="&amp;" glyph-name="ampersand" d="M156 -12Q88 -12 48 35T7 171Q7 213 17 252T49 321T108 372T197 396Q183 432 175 465T167 531Q167 570 180 602T219 659T281 696T365 710Q443 710 491 664T539 537Q539 450 487 396T343 325L434 104L451 101L522
206L596 157L547 72Q520 25 494 7T430 -12Q389 -12 358 22T305 136H300Q290 65 253 27T156 -12ZM198 98Q227 98 248 113T283 168L217 341Q193 335 178 325T155 301T142 271T136 239Q133 218 133 204T132 180Q132 139 149 119T198 98ZM356 618Q319 618 300 594T281
531Q281 499 290 467T316 393L321 380Q365 394 387 417T418 478Q423 497 424 512T425 541Q425 578 406 598T356 618Z"></glyph>
<glyph unicode="&apos;" glyph-name="quotesingle" d="M272 429L323 740H437L386 429H272Z"></glyph>
<glyph unicode="(" glyph-name="parenleft" d="M181 232Q181 316 204 395T267 542T357 666T465 760H591Q538 723 491 679T407 585T343 480T307 367L291 273Q288 255 287 240T286 208Q286 158 299 109T333 14T383 -69T442 -138H327Q296 -109 270 -70T224 17T193
119T181 232Z"></glyph>
<glyph unicode=")" glyph-name="parenright" d="M440 390Q440 306 417 227T354 80T264 -45T156 -138H30Q83 -101 130 -57T214 37T278 141T314 255L330 349Q333 367 334 382T335 414Q335 464 322 513T288 608T238 691T179 760H294Q325 731 351 692T397 605T428
503T440 390Z"></glyph>
<glyph unicode="*" glyph-name="asterisk" d="M153 45L70 106L211 262L45 325L92 421L260 359L292 549H402L370 359L556 421L573 322L385 256L475 105L381 45L291 201L153 45Z"></glyph>
<glyph unicode="+" glyph-name="plus" d="M213 62L245 255H63L79 356H262L294 549H404L372 356H554L538 255H355L323 62H213Z"></glyph>
<glyph unicode="," glyph-name="comma" d="M219 162H388L212 -148H113L219 162Z"></glyph>
<glyph unicode="-" glyph-name="hyphen" d="M144 243L164 366H472L452 243H144Z"></glyph>
<glyph unicode="." glyph-name="period" d="M256 -11Q211 -11 192 6T172 50Q172 63 178 95Q183 127 208 148T282 169Q327 169 346 152T366 108Q366 94 360 63Q355 31 330 10T256 -11Z"></glyph>
<glyph unicode="/" glyph-name="slash" d="M8 -138L482 760H597L123 -138H8Z"></glyph>
<glyph unicode="0" glyph-name="zero" d="M273 -12Q154 -12 99 56T44 247Q44 300 51 355T73 462T113 559T173 637T253 690T356 710Q475 710 530 642T585 451Q585 371 569 289T515 139T419 30T273 -12ZM274 90Q310 90 336 103T382 142T413 203T433 286L453 406Q457
429 458 448T460 485Q460 543 435 575T355 608Q319 608 293 595T247 556T216 495T196 412L176 292Q172 269 171 250T169 213Q169 155 194 123T274 90ZM307 291Q276 291 263 302T250 331Q250 340 253 358Q257 381 272 394T321 407Q352 407 365 396T379 367Q379 358
376 340Q372 317 356 304T307 291Z"></glyph>
<glyph unicode="1" glyph-name="one" d="M46 0L64 106H254L337 603H328L151 422L75 493L278 698H480L382 106H543L525 0H46Z"></glyph>
<glyph unicode="2" glyph-name="two" d="M507 0H17L37 121L294 315Q330 342 354 364T395 405T419 444T432 487Q435 503 435 517Q435 553 410 576T339 599Q312 599 291 591T253 568T224 534T202 494L91 537Q108 573 132 605T188 660T260 696T351 710Q455 710 513
658T571 520Q571 476 557 440T515 371T448 305T359 236L186 108H525L507 0Z"></glyph>
<glyph unicode="3" glyph-name="three" d="M293 416Q356 416 389 439T429 498Q433 518 433 528Q433 563 406 583T334 604Q244 604 181 519L107 598Q129 622 153 642T208 678T274 701T355 710Q404 710 444 699T512 666T555 615T571 547Q571 480 528 433T406 368L405
363Q460 354 494 316T529 214Q529 167 511 126T457 54T370 6T250 -12Q199 -12 161 -1T94 28T47 69T16 119L110 185Q129 145 162 120T257 94Q315 94 349 119T391 192Q392 197 393 206T394 222Q394 263 365 285T283 308H206L224 416H293Z"></glyph>
<glyph unicode="4" glyph-name="four" d="M310 0L332 135H9L28 249L391 698H550L473 236H567L550 135H457L434 0H310ZM137 236H349L402 555H395L137 236Z"></glyph>
<glyph unicode="5" glyph-name="five" d="M567 586H249L193 350H200Q215 373 231 391T266 422T309 442T364 449Q405 449 440 436T500 399T539 340T553 259Q553 208 535 160T481 73T390 11T264 -12Q212 -12 174 -1T107 28T59 69T27 119L130 185Q147 146 179 121T269
95Q330 95 366 126T410 209Q413 228 413 250Q413 295 386 319T308 344Q263 344 234 328T183 292L80 306L171 698H586L567 586Z"></glyph>
<glyph unicode="6" glyph-name="six" d="M269 -12Q160 -12 102 50T44 217Q44 294 72 366T145 500T249 612T367 698H549Q480 655 425 615T325 532T249 444T196 344L203 342Q217 362 233 380T271 413T318 436T378 445Q419 445 452 432T508 393T543 334T556 256Q556
203 537 155T482 69T392 10T269 -12ZM281 90Q338 90 373 120T419 207Q422 225 422 242Q422 293 395 319T314 345Q257 345 222 315T176 228Q173 210 173 193Q173 142 200 116T281 90Z"></glyph>
<glyph unicode="7" glyph-name="seven" d="M116 0L463 592H215L193 464H83L122 698H612L593 586L256 0H116Z"></glyph>
<glyph unicode="8" glyph-name="eight" d="M265 -12Q148 -12 89 37T29 164Q29 237 74 289T200 362L201 369Q156 386 131 421T106 507Q106 544 122 580T170 645T252 692T369 710Q475 710 529 666T583 547Q583 485 544 439T436 368L435 361Q489 346 519 309T550
211Q550 169 532 129T478 58T389 7T265 -12ZM272 89Q335 89 369 117T411 190Q413 203 414 210T415 228Q415 267 388 289T306 312Q243 312 209 284T167 211Q165 198 164 191T163 173Q163 134 190 112T272 89ZM327 408Q383 408 414 433T453 501Q456 519 456 533Q456
569 431 589T355 609Q299 609 268 584T229 516Q226 498 226 484Q226 448 251 428T327 408Z"></glyph>
<glyph unicode="9" glyph-name="nine" d="M583 481Q583 404 555 332T482 198T378 85T259 0H78Q147 43 202 83T301 166T377 254T431 354L424 356Q410 336 393 318T355 285T308 262T248 253Q207 253 174 266T118 304T83 364T70 442Q70 495 89 543T144 629T234 688T357
710Q412 710 454 694T524 648T568 576T583 481ZM312 353Q369 353 404 383T450 470Q453 488 453 505Q453 556 426 582T345 608Q288 608 253 578T207 491Q204 473 204 456Q204 405 231 379T312 353Z"></glyph>
<glyph unicode=":" glyph-name="colon" d="M256 -11Q211 -11 192 6T172 50Q172 63 178 95Q183 127 208 148T282 169Q327 169 346 152T366 108Q366 94 360 63Q355 31 330 10T256 -11ZM314 346Q269 346 250 363T230 407Q230 420 236 452Q241 484 266 505T340 526Q385
526 404 509T424 465Q424 451 418 420Q413 388 388 367T314 346Z"></glyph>
<glyph unicode=";" glyph-name="semicolon" d="M219 162H388L212 -148H113L219 162ZM314 346Q269 346 250 363T230 407Q230 420 236 452Q241 484 266 505T340 526Q385 526 404 509T424 465Q424 451 418 420Q413 388 388 367T314 346Z"></glyph>
<glyph unicode="&lt;" glyph-name="less" d="M83 246L103 366L571 601L550 475L208 305L207 297L492 125L473 11L83 246Z"></glyph>
<glyph unicode="=" glyph-name="equal" d="M81 365L97 466H572L556 365H81ZM45 144L61 245H536L520 144H45Z"></glyph>
<glyph unicode="&gt;" glyph-name="greater" d="M68 137L410 307L411 315L126 487L145 601L535 366L515 246L47 11L68 137Z"></glyph>
<glyph unicode="?" glyph-name="question" d="M209 228L234 382Q323 388 368 413T425 499Q427 506 427 513T427 525Q427 562 401 582T336 602Q291 602 261 576T214 507L113 553Q126 585 146 613T197 663T266 697T354 710Q452 710 507 662T563 528Q563 480 545
442T497 376T428 331T347 308L334 228H209ZM238 -11Q194 -11 175 5T156 46Q156 52 157 61T162 90Q167 119 189 139T259 160Q303 160 322 144T341 103Q341 97 340 88T335 59Q330 30 308 10T238 -11Z"></glyph>
<glyph unicode="@" glyph-name="at" d="M406 -112H287Q155 -112 99 -42T42 164Q42 209 47 259T60 358Q74 437 97 502T158 613T246 684T367 710Q421 710 461 695T527 654T567 590T581 509Q581 498 580 485T577 458L516 91H416L430 174H426Q408 133 383 106T315
79Q261 79 237 118T212 236Q212 291 223 340T256 427T307 486T377 508Q416 508 439 486T468 429H472L477 462Q479 476 480 489T482 513Q482 626 364 626Q330 626 300 615T245 575T201 497T168 369L146 236Q142 213 141 186T140 144Q140 62 175 18T296 -27H420L406
-112ZM357 162Q375 162 389 171T413 194Q421 205 431 226T447 277L462 367Q466 390 454 410T408 431Q343 431 326 327L319 284Q316 265 315 248T314 222Q314 162 357 162Z"></glyph>
<glyph unicode="A" glyph-name="A" d="M412 0L394 178H182L106 0H-29L285 698H463L545 0H412ZM359 572H350L226 284H386L359 572Z"></glyph>
<glyph unicode="B" glyph-name="B" d="M154 698H388Q477 698 523 655T570 537Q570 465 534 421T429 358L428 354Q481 342 510 309T540 219Q540 171 524 131T477 62T404 17T308 0H38L154 698ZM280 94Q333 94 365 114T404 177L408 205Q410 214 411 223T412 240Q412
310 320 310H216L180 94H280ZM314 400Q368 400 396 418T432 481L437 508Q439 515 439 523T440 538Q440 574 417 589T352 604H265L231 400H314Z"></glyph>
<glyph unicode="C" glyph-name="C" d="M289 -12Q170 -12 114 56T58 250Q58 349 80 433T143 579T244 675T379 710Q434 710 473 696T539 655T580 594T597 519L475 491Q472 515 467 536T450 572T419 595T372 604Q304 604 267 552T213 407L195 302Q191 281 189 262T187
220Q187 162 213 128T299 94Q351 94 383 128T442 218L551 182Q531 135 506 99T450 38T378 1T289 -12Z"></glyph>
<glyph unicode="D" glyph-name="D" d="M150 698H346Q461 698 521 633T581 451Q581 342 559 258T495 117T392 30T251 0H34L150 698ZM255 104Q327 104 369 147T426 279L446 396Q449 414 450 433T452 470Q452 594 333 594H261L179 104H255Z"></glyph>
<glyph unicode="E" glyph-name="E" d="M40 0L156 698H597L579 591H266L236 407H536L518 300H218L186 107H499L481 0H40Z"></glyph>
<glyph unicode="F" glyph-name="F" d="M40 0L156 698H612L594 591H266L236 407H531L513 300H218L168 0H40Z"></glyph>
<glyph unicode="G" glyph-name="G" d="M399 102H391Q378 79 364 58T331 22T290 -3T235 -12Q148 -12 100 52T51 243Q51 341 71 426T131 574T232 673T372 710Q424 710 462 695T525 655T565 594T583 518L461 491Q458 513 452 533T435 570T406 595T360 604Q327 604
302 591T259 552T227 490T207 410L190 309Q187 291 185 267T182 225Q182 165 206 129T284 93Q313 93 336 103T377 131T404 172T419 221L427 270H298L313 364H557L497 0H382L399 102Z"></glyph>
<glyph unicode="H" glyph-name="H" d="M412 301H204L154 0H26L142 698H270L222 407H430L478 698H606L490 0H362L412 301Z"></glyph>
<glyph unicode="I" glyph-name="I" d="M35 0L51 97H209L293 601H135L151 698H595L579 601H421L337 97H495L479 0H35Z"></glyph>
<glyph unicode="J" glyph-name="J" d="M574 698L490 194Q472 88 410 38T245 -12Q147 -12 95 38T38 175L159 198Q160 176 165 157T181 124T209 102T253 94Q345 94 363 202L428 591H188L206 698H574Z"></glyph>
<glyph unicode="K" glyph-name="K" d="M288 301L193 200L160 0H32L148 698H276L223 380H230L349 519L507 698H660L389 392L552 0H410L288 301Z"></glyph>
<glyph unicode="L" glyph-name="L" d="M59 0L175 698H303L205 107H516L498 0H59Z"></glyph>
<glyph unicode="M" glyph-name="M" d="M451 325L490 527H482L285 168L209 527H201L173 325L119 0H6L122 698H272L327 439H335L476 698H626L510 0H397L451 325Z"></glyph>
<glyph unicode="N" glyph-name="N" d="M232 508H223L139 0H26L142 698H302L400 190H409L493 698H606L490 0H330L232 508Z"></glyph>
<glyph unicode="O" glyph-name="O" d="M273 -12Q154 -12 99 55T44 243Q44 325 60 408T113 559T209 668T356 710Q475 710 530 643T585 455Q585 373 569 290T516 139T420 30T273 -12ZM275 94Q343 94 378 145T429 290L449 407Q455 447 455 483Q455 540 431 572T354
604Q286 604 251 553T200 408L180 291Q174 250 174 215Q174 158 198 126T275 94Z"></glyph>
<glyph unicode="P" glyph-name="P" d="M40 0L156 698H408Q454 698 488 685T546 648T580 591T592 519Q592 461 575 415T527 336T451 286T350 268H213L168 0H40ZM230 374H337Q437 374 452 463L457 494Q458 499 458 507T459 524Q459 560 439 576T373 593H267L230 374Z"></glyph>
<glyph unicode="Q" glyph-name="Q" d="M400 -198Q366 -198 347 -182T311 -143L220 -8Q129 7 87 72T44 243Q44 325 60 408T114 559T210 668T356 710Q475 710 530 643T585 455Q585 382 572 308T531 171T457 61T345 -3L404 -93L419 -97L509 -11L575 -70L524 -125Q504
-147 488 -161T458 -183T430 -195T400 -198ZM275 94Q343 94 378 145T429 290L449 407Q455 447 455 483Q455 540 431 572T354 604Q286 604 251 553T200 408L180 291Q174 250 174 215Q174 158 198 126T275 94Z"></glyph>
<glyph unicode="R" glyph-name="R" d="M167 0H39L155 698H407Q499 698 545 649T591 519Q591 422 544 361T412 283L516 0H380L291 272H212L167 0ZM336 374Q389 374 415 394T450 459L455 489Q457 496 457 505T458 523Q458 558 437 575T374 593H266L229 374H336Z"></glyph>
<glyph unicode="S" glyph-name="S" d="M267 -12Q179 -12 114 18T16 100L100 180Q131 137 177 116T275 95Q340 95 374 125T409 210Q409 248 389 267T320 298L249 314Q171 331 136 376T100 488Q100 539 118 580T171 650T254 694T363 710Q444 710 503 682T591 607L505
531Q480 566 444 585T357 605Q296 605 264 577T232 501Q232 466 253 448T325 417L393 400Q471 380 506 337T542 225Q542 172 524 129T470 54T383 6T267 -12Z"></glyph>
<glyph unicode="T" glyph-name="T" d="M419 591L321 0H193L291 591H80L98 698H649L631 591H419Z"></glyph>
<glyph unicode="U" glyph-name="U" d="M264 698L194 277Q189 245 186 218T182 174Q182 137 202 116T276 94Q313 94 336 105T373 138T395 190T409 259L482 698H610L540 277Q528 208 513 155T468 64T393 8T272 -12Q211 -12 170 1T104 37T67 94T56 169Q56 197 60
230T70 301L136 698H264Z"></glyph>
<glyph unicode="V" glyph-name="V" d="M166 0L92 698H227L256 348L273 124H281L372 348L514 698H653L348 0H166Z"></glyph>
<glyph unicode="W" glyph-name="W" d="M21 0L91 698H202L158 294L139 120H148L285 537H408L410 120H419L453 281L547 698H654L491 0H322L328 396H319L190 0H21Z"></glyph>
<glyph unicode="X" glyph-name="X" d="M545 0H403L349 140L305 261H298L216 140L115 0H-28L238 360L100 698H243L289 580L331 460H337L419 580L505 698H648L399 357L545 0Z"></glyph>
<glyph unicode="Y" glyph-name="Y" d="M194 0L236 254L82 698H219L274 528L313 384H321L410 528L519 698H664L365 258L322 0H194Z"></glyph>
<glyph unicode="Z" glyph-name="Z" d="M507 0H7L26 115L443 591H118L136 698H611L592 583L175 107H525L507 0Z"></glyph>
<glyph unicode="[" glyph-name="bracketleft" d="M130 -138L280 760H588L574 673H369L248 -51H453L438 -138H130Z"></glyph>
<glyph unicode="\" glyph-name="backslash" d="M344 -138L167 760H270L447 -138H344Z"></glyph>
<glyph unicode="]" glyph-name="bracketright" d="M482 760L332 -138H24L38 -51H243L364 673H159L174 760H482Z"></glyph>
<glyph unicode="^" glyph-name="asciicircum" d="M473 267L358 582H349L137 266L43 314L302 698H438L575 309L473 267Z"></glyph>
<glyph unicode="_" glyph-name="underscore" d="M-8 -185L10 -79H485L467 -185H-8Z"></glyph>
<glyph unicode="`" glyph-name="grave" d="M194 749L303 798L373 608L296 575L194 749Z"></glyph>
<glyph unicode="a" glyph-name="a" d="M357 0L377 122H373Q358 92 342 68T304 26T257 -2T197 -12Q117 -12 80 41T43 188Q43 257 58 319T104 427T180 501T283 528Q343 528 376 501T422 422H427L443 516H569L483 0H357ZM251 88Q280 88 303 101T348 139Q362 156 377
182T398 243L413 337Q421 380 398 404T323 428Q262 428 229 392T186 295L175 229Q173 220 172 209T171 185Q171 142 189 115T251 88Z"></glyph>
<glyph unicode="b" glyph-name="b" d="M154 740H280L222 394H227Q242 424 258 448T296 490T343 518T403 528Q483 528 520 475T557 328Q557 259 542 197T496 89T420 15T317 -12Q257 -12 224 15T178 94H172L157 0H31L154 740ZM277 88Q338 88 371 124T414 221L425
287Q427 296 428 307T429 331Q429 374 411 401T349 428Q320 428 297 415T252 377Q238 360 223 334T202 273L187 179Q179 136 202 112T277 88Z"></glyph>
<glyph unicode="c" glyph-name="c" d="M272 -12Q169 -12 116 46T62 206Q62 274 81 333T137 435T225 503T342 528Q429 528 475 492T536 399L433 352Q421 389 399 407T332 425Q282 425 249 394T205 298L195 238Q193 227 192 215T191 191Q191 143 215 117T292 91Q308
91 323 94T356 110T395 144T445 205L526 154Q500 114 474 83T418 31T353 -1T272 -12Z"></glyph>
<glyph unicode="d" glyph-name="d" d="M377 122H373Q358 92 342 68T304 26T257 -2T197 -12Q117 -12 80 41T43 188Q43 257 58 319T104 427T180 501T283 528Q343 528 376 501T422 422H427L480 740H606L483 0H357L377 122ZM251 88Q280 88 303 101T348 139Q362 156
376 181T397 241L413 337Q421 380 398 404T323 428Q262 428 229 392T186 295L175 229Q173 220 172 209T171 185Q171 142 189 115T251 88Z"></glyph>
<glyph unicode="e" glyph-name="e" d="M280 -12Q170 -12 116 45T61 209Q61 280 82 339T143 440T237 505T359 528Q398 528 431 519T490 493T530 449T545 387Q545 357 532 327T481 271T373 229T188 207Q187 201 187 197T187 189Q187 143 210 115T295 87Q319 87 338
91T374 107T409 137T447 182L527 131Q506 100 483 74T430 28T364 -1T280 -12ZM347 436Q290 436 253 404T200 297L197 282Q274 286 318 296T386 319T415 347T422 377Q422 404 405 420T347 436Z"></glyph>
<glyph unicode="f" glyph-name="f" d="M181 -212Q157 -212 137 -204T99 -181T61 -142T20 -90L-27 -29L59 34L177 -110L191 -106L277 416H109L126 516H294L308 603Q318 662 358 701T473 740H650L633 640H440L420 516H613L596 416H403L322 -70Q298 -212 181 -212Z"></glyph>
<glyph unicode="g" glyph-name="g" d="M220 -212Q151 -212 103 -196T18 -138L95 -59Q118 -87 149 -99T218 -112Q248 -112 271 -106T313 -82T344 -35T365 41L382 142H377Q363 112 347 87T309 44T262 17T202 7Q161 7 132 21T83 62T55 125T46 206Q46 270 61 328T106
431T180 502T282 528Q343 528 377 501T423 422H428L444 516H570L489 27Q468 -97 399 -154T220 -212ZM255 108Q284 108 307 120T351 157Q364 172 380 197T402 261L415 337Q422 379 399 403T324 428Q263 428 231 392T187 295L179 249Q177 239 176 227T175 201Q175
159 194 134T255 108Z"></glyph>
<glyph unicode="h" glyph-name="h" d="M158 740H284L227 394H232Q260 455 299 491T401 528Q437 528 463 517T507 485T532 438T541 379Q541 342 531 283L484 0H358L407 295Q409 309 411 325T414 357Q414 385 399 407T347 429Q318 429 297 416T257 379Q246 365 229
337T206 272L161 0H35L158 740Z"></glyph>
<glyph unicode="i" glyph-name="i" d="M340 598Q298 598 282 614T265 653Q265 658 266 666T269 688Q274 717 293 733T355 750Q397 750 413 734T430 695Q430 690 429 682T426 660Q421 631 402 615T340 598ZM290 -12Q236 -12 208 16T180 93Q180 107 182 122T189
161L238 416H72L89 516H382L301 94L320 88L477 239L547 176L477 102Q421 42 379 15T290 -12Z"></glyph>
<glyph unicode="j" glyph-name="j" d="M234 -212Q208 -212 188 -204T148 -178T108 -135T62 -73L20 -17L106 46L233 -113L247 -108L334 416H138L155 516H477L381 -58Q368 -136 333 -174T234 -212ZM432 598Q390 598 374 614T357 653Q357 658 358 666T361 688Q366
717 385 733T447 750Q489 750 505 734T522 695Q522 690 521 682T518 660Q513 631 494 615T432 598Z"></glyph>
<glyph unicode="k" glyph-name="k" d="M158 740H284L226 394H232Q258 452 301 490T409 528Q472 528 508 493T544 404Q544 340 501 293T357 216L408 93L422 91L519 183L581 121L524 61Q489 25 458 7T389 -12Q348 -12 324 11T283 78L224 227Q324 255 370 288T417
369Q417 397 399 414T345 431Q320 431 299 420T255 380Q238 359 225 333T206 271L161 0H35L158 740Z"></glyph>
<glyph unicode="l" glyph-name="l" d="M264 -12Q208 -12 182 17T156 94Q156 108 157 122T164 159L254 640H93L110 740H399L277 94L295 88L454 240L524 177L450 100Q393 40 351 14T264 -12Z"></glyph>
<glyph unicode="m" glyph-name="m" d="M-5 0L81 516H185L170 429H176Q194 473 221 500T290 528Q331 528 352 502T368 427H373Q392 472 421 500T497 528Q585 528 585 431Q585 415 583 394T578 355L519 0H415L472 344Q477 369 477 390Q477 434 444 434Q430 434 417
427T391 399Q380 381 373 362T363 326L309 0H205L262 344Q267 369 267 390Q267 434 234 434Q220 434 207 427T181 399Q170 381 163 362T153 326L99 0H-5Z"></glyph>
<glyph unicode="n" glyph-name="n" d="M35 0L121 516H247L227 394H232Q260 455 299 491T401 528Q437 528 463 517T507 485T532 438T541 379Q541 342 531 283L484 0H358L407 295Q409 309 411 325T414 357Q414 385 399 407T347 429Q318 429 297 416T257 379Q246
365 229 337T206 272L161 0H35Z"></glyph>
<glyph unicode="o" glyph-name="o" d="M265 -12Q214 -12 174 3T106 48T64 118T49 209Q49 283 70 342T129 442T219 506T335 528Q386 528 426 513T494 468T536 398T551 307Q551 233 530 174T471 74T381 10T265 -12ZM274 85Q330 85 363 118T408 214L420 285Q422 297
423 309T425 330Q425 381 399 406T326 431Q270 431 237 398T192 302L180 231Q178 219 177 207T175 186Q175 135 201 110T274 85Z"></glyph>
<glyph unicode="p" glyph-name="p" d="M117 516H243L222 394H227Q242 424 258 448T296 490T343 518T403 528Q483 528 520 475T557 328Q557 259 542 197T496 89T420 15T317 -12Q257 -12 224 15T178 94H172L123 -200H-3L117 516ZM277 88Q338 88 371 124T414 221L424
283Q426 292 427 305T429 331Q429 374 411 401T349 428Q320 428 297 415T252 377Q238 360 223 334T202 273L187 179Q179 136 202 112T277 88Z"></glyph>
<glyph unicode="q" glyph-name="q" d="M377 122H373Q358 92 342 68T304 26T257 -2T197 -12Q117 -12 80 41T43 188Q43 257 58 319T104 427T180 501T283 528Q343 528 376 501T422 422H427L443 516H569L450 -200H324L377 122ZM251 88Q280 88 303 101T348 139Q362
156 377 182T398 243L413 337Q421 380 398 404T323 428Q262 428 229 392T186 295L175 229Q173 220 172 209T171 185Q171 142 189 115T251 88Z"></glyph>
<glyph unicode="r" glyph-name="r" d="M156 0L225 416H99L116 516H368L342 365H348Q379 436 425 476T548 516H595L574 390H483Q441 390 415 379T369 343Q359 331 344 305T323 247L282 0H156Z"></glyph>
<glyph unicode="s" glyph-name="s" d="M261 -12Q184 -12 128 11T43 76L118 146Q142 114 181 97T270 80Q322 80 352 98T382 150Q382 176 366 186T323 201L249 216Q220 222 194 231T149 256T118 296T106 355Q106 398 123 430T172 484T245 517T336 528Q405 528 457
508T537 453L465 381Q448 403 415 419T331 436Q283 436 257 419T230 370Q230 344 246 334T289 319L365 303Q395 297 421 288T466 263T496 224T507 167Q507 125 490 92T440 36T363 0T261 -12Z"></glyph>
<glyph unicode="t" glyph-name="t" d="M266 -12Q209 -12 182 18T155 100Q155 111 157 125T162 157L205 416H68L85 516H174Q204 516 219 528T240 572L261 698H378L348 516H553L536 416H331L279 100L299 92L475 223L537 150L461 90Q428 64 402 45T354 13T310 -6T266 -12Z"></glyph>
<glyph unicode="u" glyph-name="u" d="M373 122H368Q339 60 300 24T199 -12Q163 -12 137 -1T93 31T68 78T59 137Q59 174 69 233L116 516H242L193 221Q191 207 189 191T186 159Q186 131 201 109T253 87Q282 87 303 100T343 137Q354 151 371 179T394 244L439 516H565L479
0H353L373 122Z"></glyph>
<glyph unicode="v" glyph-name="v" d="M279 516L213 86L226 78Q278 92 315 120T376 186T411 268T422 357Q422 391 414 424T390 486L504 526Q527 495 538 452T549 358Q549 281 521 214T445 96T335 18T207 -11Q150 -11 123 18T95 97Q95 124 101 162L140 416H45L62 516H279Z"></glyph>
<glyph unicode="w" glyph-name="w" d="M116 -11Q67 -11 45 18T22 95Q22 109 24 134T30 182L86 516H186L131 186Q129 175 127 160T125 133Q125 91 161 91Q178 91 191 102T216 131Q225 144 230 163T239 201L292 516H391L335 179Q333 168 332 154T330 131Q330 112
337 101T364 89Q385 89 404 112T439 175T463 264T472 367Q472 402 467 437T452 496L543 523Q557 495 566 456T575 367Q575 277 553 200T490 70Q460 30 422 10T341 -11Q290 -11 268 18T249 97H243Q223 44 192 17T116 -11Z"></glyph>
<glyph unicode="x" glyph-name="x" d="M106 -12Q55 -12 27 22T-1 122Q-1 138 -1 150T2 174L105 185Q104 176 104 169T104 160Q104 118 112 100T143 81Q173 81 193 113T224 191T240 285T245 365Q245 382 244 398T240 429L227 435L88 342L36 413L106 465Q144 493
177 510T246 528Q276 528 295 516T325 483T340 433T345 369H352Q372 455 408 491T495 528Q546 528 574 494T602 394Q602 378 602 366T599 342L496 331Q497 340 497 347T497 356Q497 398 489 416T458 435Q438 435 423 420T396 380T377 325T365 262T358 201T356 151Q356
130 357 117T363 87L375 81L514 177L566 109L516 65Q467 22 429 5T358 -12Q304 -12 280 30T256 147H249Q229 61 193 25T106 -12Z"></glyph>
<glyph unicode="y" glyph-name="y" d="M214 -212Q145 -212 96 -196T12 -138L89 -59Q112 -87 143 -99T212 -112Q242 -112 266 -105T309 -81T340 -33T360 42L376 139H371Q357 108 341 83T304 41T258 14T202 4Q166 4 140 15T96 47T71 94T62 153Q62 173 64 194T71
247L116 516H242L195 236Q193 222 191 207T189 176Q189 148 204 126T256 104Q285 104 306 117T346 153Q357 167 373 195T396 260L439 516H565L483 25Q463 -98 394 -155T214 -212Z"></glyph>
<glyph unicode="z" glyph-name="z" d="M417 -11Q385 -11 352 -4T279 20L155 74L150 71L138 0H27L45 107L376 384Q338 409 310 419T250 429Q178 429 178 340H83V350Q83 436 126 482T244 528Q289 528 336 511T439 446L446 440L452 446L464 516H575L557 409L223 130L437
87L448 99L417 201L494 233L509 202Q523 173 530 150T538 103Q538 81 530 61T506 24T468 -1T417 -11Z"></glyph>
<glyph unicode="{" glyph-name="braceleft" d="M263 -138Q210 -138 189 -117T167 -62Q167 -50 170 -28T177 11Q182 37 190 56T209 91T231 119T253 142Q279 168 287 183T295 214Q295 268 194 268H103L117 354H208Q268 354 299 372T330 424Q330 438 326 450T312
480Q300 500 288 522T276 578Q276 589 279 614T286 661Q293 705 324 732T414 760H589L575 673H389Q382 635 380 616T377 589Q377 564 384 549T402 515Q413 496 423 475T433 428Q433 381 401 352T302 314L300 307Q350 302 374 280T399 222Q399 186 379 160T334 107Q315
87 300 66T278 6L268 -51H454L439 -138H263Z"></glyph>
<glyph unicode="|" glyph-name="bar" d="M181 -138L331 760H438L288 -138H181Z"></glyph>
<glyph unicode="}" glyph-name="braceright" d="M355 760Q408 760 429 739T451 684Q451 672 448 650T441 611Q436 585 428 566T409 531T387 503T365 480Q339 454 331 439T323 408Q323 354 424 354H515L501 268H410Q350 268 319 250T288 198Q288 184 292 172T306
142Q318 122 330 100T342 44Q342 33 339 8T332 -39Q325 -83 294 -110T204 -138H29L43 -51H229Q236 -13 238 6T241 33Q241 58 234 73T216 107Q205 126 195 147T185 194Q185 241 217 270T316 308L318 315Q268 320 244 342T219 400Q219 436 239 462T284 515Q303 535
318 556T340 616L350 673H164L179 760H355Z"></glyph>
<glyph unicode="~" glyph-name="asciitilde" d="M404 218Q373 218 348 228T296 253Q273 266 253 276T213 286Q187 286 169 268T134 218L48 262Q70 319 113 355T213 392Q244 392 269 382T321 357Q344 344 364 334T404 324Q430 324 448 342T483 392L569 348Q547
291 504 255T404 218Z"></glyph>
<glyph unicode="&#xa0;" glyph-name="uni00A0"></glyph>
<glyph unicode="&#xa1;" glyph-name="exclamdown" d="M155 -182L189 23L278 276H324L328 23L294 -182H155ZM318 356Q274 356 255 372T236 413Q236 419 237 428T242 457Q247 486 269 506T339 527Q383 527 402 511T421 470Q421 464 420 455T415 426Q410 397 388
377T318 356Z"></glyph>
<glyph unicode="&#xa2;" glyph-name="cent" d="M219 -7Q142 9 102 64T62 206Q62 270 79 325T128 423T205 493T308 526L325 630H422L404 522Q464 511 498 479T545 401L447 361Q438 387 423 403T382 427L325 87Q349 93 376 115T446 192L523 146Q480 77 433 38T315
-10L298 -114H201L219 -7ZM184 191Q184 113 243 92L299 428Q259 418 233 386T199 299L189 240Q187 226 186 214T184 191Z"></glyph>
<glyph unicode="&#xa3;" glyph-name="sterling" d="M469 -12Q437 -12 401 -3T323 20L149 77L137 0H24L44 123Q95 145 126 179T157 274Q157 281 157 287T156 299H51L66 390H141Q137 408 135 428T132 468Q132 521 151 565T205 642T287 692T388 710Q470 710 521 673T599
578L498 520Q482 556 455 578T383 600Q326 600 292 565T258 460Q258 441 260 424T266 390H444L429 299H283Q284 296 284 290T284 282Q284 240 260 212T197 176L193 169L457 99L468 111L446 212L535 236L546 204Q557 172 563 148T569 99Q569 77 563 57T543 22T512
-3T469 -12Z"></glyph>
<glyph unicode="&#xa5;" glyph-name="yen" d="M40 99H214L235 225H60L77 324H209L82 698H213L311 371H318L526 698H666L414 324H547L530 225H356L335 99H509L493 0H23L40 99Z"></glyph>
<glyph unicode="&#xa6;" glyph-name="brokenbar" d="M271 400L331 760H438L378 400H271ZM181 -138L241 222H348L288 -138H181Z"></glyph>
<glyph unicode="&#xa7;" glyph-name="section" d="M459 15Q459 -26 444 -59T401 -118T332 -156T239 -170Q184 -170 131 -154T42 -102L111 -24Q133 -49 167 -62T240 -76Q285 -76 316 -56T347 -1Q347 25 330 42T265 75L197 98Q125 122 95 156T65 232Q65 291 99 329T206
387L208 398Q173 424 158 456T142 525Q142 565 157 599T200 658T269 696T362 710Q417 710 470 694T559 642L490 564Q468 589 434 602T361 616Q316 616 285 596T254 541Q254 515 271 498T336 465L404 442Q476 418 506 384T536 308Q536 249 502 211T395 153L393 142Q428
116 443 84T459 15ZM422 263Q422 288 405 310T342 347L272 368Q262 371 250 376Q212 354 196 331T179 277Q179 252 196 230T259 193L329 172Q339 169 351 164Q389 186 405 209T422 263Z"></glyph>
<glyph unicode="&#xa8;" glyph-name="dieresis" d="M214 600Q176 600 161 614T146 649Q146 654 147 661T151 681Q157 707 173 721T227 736Q265 736 280 722T295 687Q295 682 294 675T290 655Q284 629 268 615T214 600ZM423 600Q385 600 370 614T355 649Q355 654
356 661T360 681Q366 707 382 721T436 736Q474 736 489 722T504 687Q504 682 503 675T499 655Q493 629 477 615T423 600Z"></glyph>
<glyph unicode="&#xa9;" glyph-name="copyright" d="M271 18Q214 18 166 37T84 93T30 182T11 300Q11 384 37 454T108 574T217 652T356 680Q413 680 460 661T542 605T596 516T616 398Q616 314 590 244T519 124T410 46T271 18ZM276 72Q328 72 373 89T453 137T512
212T545 309Q552 350 554 368T556 398Q556 442 545 483T509 556T445 607T351 626Q299 626 254 609T174 561T115 486T82 389Q74 348 73 330T71 300Q71 256 82 215T118 142T182 91T276 72ZM294 159Q222 159 181 202T140 318Q140 362 155 402T196 473T258 522T339
540Q400 540 433 514T479 442L398 406Q393 430 379 444T336 458Q302 458 282 437T256 384L246 322Q244 314 244 309T244 298Q244 272 258 257T302 241Q329 241 349 255T384 293L454 254Q431 216 392 188T294 159Z"></glyph>
<glyph unicode="&#xaa;" glyph-name="ordfeminine" d="M370 345L380 407H372Q357 375 332 357T268 338Q218 338 189 362T160 428Q160 491 205 521T338 552H400L403 572Q404 578 404 583T405 593Q405 618 388 630T342 642Q310 642 288 629T249 595L204 644Q224
670 260 690T355 710Q419 710 457 683T496 603Q496 584 493 566L456 345H370ZM331 498Q297 498 277 488T252 453Q250 447 250 442T250 435Q250 418 263 409T301 400Q332 400 355 414T384 456L391 498H331Z"></glyph>
<glyph unicode="&#xab;" glyph-name="guillemotleft" d="M486 47L314 217L333 331L553 496L585 413L426 267L537 123L486 47ZM467 47L295 217L314 331L534 496L566 413L407 267L518 123L467 47Z"></glyph>
<glyph unicode="&#xac;" glyph-name="logicalnot" d="M387 62L419 255H63L79 356H540L491 62H387Z"></glyph>
<glyph unicode="&#xad;" glyph-name="uni00AD" d="M144 243L164 366H472L452 243H144Z"></glyph>
<glyph unicode="&#xae;" glyph-name="registered" d="M309 346Q274 346 244 357T192 390T158 440T146 507Q146 548 161 585T204 649T268 693T351 710Q386 710 416 699T467 666T501 616T514 549Q514 508 499 471T456 406T392 362T309 346ZM310 386Q375 386 413
421T462 510Q467 535 467 550Q467 602 439 636T350 670Q285 670 247 635T198 546Q193 521 193 506Q193 454 221 420T310 386ZM290 439H240L271 624H361Q390 624 404 610T419 573Q419 548 406 532T373 507L403 439H348L325 498H300L290 439ZM334 535Q361 535 364
556Q365 561 365 563T365 567Q365 584 343 584H314L306 535H334Z"></glyph>
<glyph unicode="&#xaf;" glyph-name="overscore" d="M184 714H481L465 623H169L184 714Z"></glyph>
<glyph unicode="&#xb0;" glyph-name="degree" d="M328 345Q291 345 260 357T207 391T173 443T161 510Q161 553 177 589T220 653T285 695T365 710Q402 710 433 698T486 664T520 612T532 545Q532 502 516 466T473 402T408 360T328 345ZM334 429Q358 429 377 438T411
462T432 499T440 543Q440 578 419 602T359 626Q335 626 316 617T282 593T261 556T253 512Q253 477 274 453T334 429Z"></glyph>
<glyph unicode="&#xb1;" glyph-name="plusminus" d="M232 173L261 351H79L95 452H278L307 630H417L388 452H570L554 351H371L342 173H232ZM21 0L37 101H512L496 0H21Z"></glyph>
<glyph unicode="&#xb2;" glyph-name="twosuperior" d="M450 329H175L188 406L323 498Q346 514 368 531T395 576Q397 586 397 593Q397 612 384 621T351 631Q323 631 308 615T286 581L212 609Q229 648 263 676T356 704Q384 704 408 697T450 677T478 643T488 596Q488
571 479 551T453 513T414 479T366 447L290 399H461L450 329Z"></glyph>
<glyph unicode="&#xb3;" glyph-name="threesuperior" d="M330 553Q365 553 378 564T395 587Q397 595 397 603Q397 618 385 627T349 636Q327 636 307 626T269 592L220 644Q246 672 278 688T358 704Q419 704 452 679T485 611Q485 577 464 553T399 521V519Q465 505
465 440Q465 390 425 357T311 323Q253 323 220 343T173 395L234 438Q244 417 261 404T311 391Q363 391 374 433Q376 441 376 448Q376 484 321 484H279L291 553H330Z"></glyph>
<glyph unicode="&#xb4;" glyph-name="acute" d="M322 575L248 615L361 798L461 744L322 575Z"></glyph>
<glyph unicode="&#xb5;" glyph-name="mu" d="M0 -200L119 516H245L195 214Q193 202 192 190T191 166Q191 130 208 109T260 88Q286 88 308 100T349 135Q360 149 375 175T395 234L442 516H568L482 0H356L376 119H371Q360 92 346 68T314 26T273 -2T223 -12Q198 -12
179 -1T149 38H144V-88L126 -200H0Z"></glyph>
<glyph unicode="&#xb6;" glyph-name="paragraph" d="M261 246Q221 246 187 259T127 298T88 359T73 440Q73 498 95 545T153 627T237 679T336 698H617L476 -149H374L499 600H422L297 -149H195L261 246Z"></glyph>
<glyph unicode="&#xb7;" glyph-name="middot" d="M296 216Q251 216 232 233T212 277Q212 290 218 322Q223 354 248 375T322 396Q367 396 386 379T406 335Q406 321 400 290Q395 258 370 237T296 216Z"></glyph>
<glyph unicode="&#xb8;" glyph-name="cedilla" d="M285 -210Q242 -210 215 -197T174 -166L221 -117Q229 -127 244 -136T283 -145Q303 -145 317 -138T331 -114Q331 -103 319 -92T265 -77L241 -75L279 27H341L310 -57L313 -61Q324 -57 334 -56T353 -55Q380 -55 399
-69T418 -116Q418 -139 408 -156T379 -186T337 -204T285 -210Z"></glyph>
<glyph unicode="&#xb9;" glyph-name="onesuperior" d="M203 329L214 397H303L340 617L253 574L226 636L350 698H439L389 397H468L456 329H203Z"></glyph>
<glyph unicode="&#xba;" glyph-name="ordmasculine" d="M320 338Q248 338 208 378T168 488Q168 537 182 578T223 648T286 694T371 710Q443 710 483 670T523 560Q523 510 509 470T468 400T404 354T320 338ZM330 407Q367 407 390 431T420 493L430 553Q431 559 431
564T432 575Q432 606 414 623T361 641Q324 641 301 617T271 555L261 495Q260 489 260 484T259 473Q259 442 277 425T330 407Z"></glyph>
<glyph unicode="&#xbb;" glyph-name="guillemotright" d="M36 130L195 276L84 420L135 496L307 326L288 212L68 47L36 130ZM273 130L432 276L321 420L372 496L544 326L525 212L305 47L273 130Z"></glyph>
<glyph unicode="&#xbc;" glyph-name="onequarter" d="M435 64H278L289 133L456 335H556L520 120H565L556 64H511L501 0H424L435 64ZM444 120L468 260H463L348 120H444ZM67 426H154L188 629L101 588L81 644L193 698H279L234 426H311L300 363H56L67 426ZM573 698H669L450
398H354L573 698ZM182 300H278L59 0H-37L182 300Z"></glyph>
<glyph unicode="&#xbd;" glyph-name="onehalf" d="M293 70L415 153Q453 179 468 196T487 229Q488 233 488 237T488 244Q488 260 476 269T445 278Q422 278 406 264T378 227L315 255Q332 291 364 316T453 341Q511 341 541 314T571 249Q571 224 560 204T532 167T494
136T451 108L380 62H548L538 0H281L293 70ZM67 426H154L188 629L101 588L81 644L193 698H279L234 426H311L300 363H56L67 426ZM573 698H669L450 398H354L573 698ZM182 300H278L59 0H-37L182 300Z"></glyph>
<glyph unicode="&#xbe;" glyph-name="threequarters" d="M435 64H278L289 133L456 335H556L520 120H565L556 64H511L501 0H424L435 64ZM444 120L468 260H463L348 120H444ZM172 357Q118 357 89 377T45 427L102 461Q110 441 126 430T173 418Q200 418 214 428T231
454Q233 464 233 472Q233 488 218 497T177 506H148L158 564H190Q221 564 234 574T251 598Q253 608 253 613Q253 627 241 635T207 643Q185 643 166 632T129 602L87 647Q114 673 144 688T218 704Q274 704 306 682T338 622Q338 588 314 566T253 538V534Q285 531 301
512T318 465Q318 417 278 387T172 357ZM573 698H669L450 398H354L573 698ZM182 300H278L59 0H-37L182 300Z"></glyph>
<glyph unicode="&#xbf;" glyph-name="questiondown" d="M242 -194Q144 -194 89 -146T33 -12Q33 36 51 74T99 140T168 185T249 208L262 288H387L362 134Q273 128 228 103T171 17Q169 10 169 3T169 -9Q169 -46 195 -66T260 -86Q305 -86 335 -60T382 9L483 -37Q470
-69 450 -97T399 -147T330 -181T242 -194ZM337 356Q293 356 274 372T255 413Q255 419 256 428T261 457Q266 486 288 506T358 527Q402 527 421 511T440 470Q440 464 439 455T434 426Q429 397 407 377T337 356Z"></glyph>
<glyph unicode="&#xc0;" glyph-name="Agrave" d="M412 0L394 178H182L106 0H-29L285 698H463L545 0H412ZM359 572H350L226 284H386L359 572ZM263 919L372 968L442 778L365 745L263 919Z"></glyph>
<glyph unicode="&#xc1;" glyph-name="Aacute" d="M412 0L394 178H182L106 0H-29L285 698H463L545 0H412ZM359 572H350L226 284H386L359 572ZM391 745L317 785L430 968L530 914L391 745Z"></glyph>
<glyph unicode="&#xc2;" glyph-name="Acircumflex" d="M412 0L394 178H182L106 0H-29L285 698H463L545 0H412ZM359 572H350L226 284H386L359 572ZM468 949L570 794L502 746L400 862L265 746L204 796L352 949H468Z"></glyph>
<glyph unicode="&#xc3;" glyph-name="Atilde" d="M412 0L394 178H182L106 0H-29L285 698H463L545 0H412ZM359 572H350L226 284H386L359 572ZM465 768Q441 768 424 775T390 791Q372 801 355 807T319 814Q302 814 288 808T256 787L220 846Q240 872 269 889T336 907Q360
907 377 900T411 884Q429 874 446 868T482 861Q499 861 513 867T545 888L581 829Q561 803 532 786T465 768Z"></glyph>
<glyph unicode="&#xc4;" glyph-name="Adieresis" d="M412 0L394 178H182L106 0H-29L285 698H463L545 0H412ZM359 572H350L226 284H386L359 572ZM283 770Q245 770 230 784T215 819Q215 824 216 831T220 851Q226 877 242 891T296 906Q334 906 349 892T364 857Q364
852 363 845T359 825Q353 799 337 785T283 770ZM492 770Q454 770 439 784T424 819Q424 824 425 831T429 851Q435 877 451 891T505 906Q543 906 558 892T573 857Q573 852 572 845T568 825Q562 799 546 785T492 770Z"></glyph>
<glyph unicode="&#xc5;" glyph-name="Aring" d="M412 0L394 178H182L106 0H-29L285 698H463L545 0H412ZM359 572H350L226 284H386L359 572ZM379 728Q353 728 331 737T293 761T267 798T258 845Q258 878 270 905T304 953T354 984T415 995Q441 995 463 986T501 961T527
924T536 878Q536 845 524 818T490 770T440 739T379 728ZM387 794Q439 794 448 847Q453 875 453 888Q453 929 407 929Q355 929 346 876Q341 848 341 835Q341 794 387 794Z"></glyph>
<glyph unicode="&#xc6;" glyph-name="AE" d="M305 179H188L117 0H-9L280 698H670L654 600H495L462 402H610L594 304H446L411 98H570L554 0H276L305 179ZM353 608L225 276H322L377 608H353Z"></glyph>
<glyph unicode="&#xc7;" glyph-name="Ccedilla" d="M372 604Q304 604 266 552T213 407L195 302Q192 281 190 262T187 220Q187 162 213 128T299 94Q351 94 383 128T442 218L551 182Q513 96 459 46T319 -11L302 -57L305 -61Q316 -57 326 -56T345 -55Q373 -55 391
-70T410 -114Q410 -138 400 -156T371 -186T329 -204T276 -210Q234 -210 207 -197T166 -166L213 -117Q221 -127 236 -136T274 -145Q295 -145 309 -138T323 -114Q323 -103 310 -93T257 -77L233 -75L256 -11Q154 0 106 67T58 250Q58 349 80 433T143 579T244 675T379
710Q434 710 473 696T539 655T580 594T597 519L475 491Q472 515 467 536T450 572T419 595T372 604Z"></glyph>
<glyph unicode="&#xc8;" glyph-name="Egrave" d="M266 919L375 968L445 778L368 745L266 919ZM40 0L156 698H597L579 591H266L236 407H536L518 300H218L186 107H499L481 0H40Z"></glyph>
<glyph unicode="&#xc9;" glyph-name="Eacute" d="M40 0L156 698H597L579 591H266L236 407H536L518 300H218L186 107H499L481 0H40ZM394 745L320 785L433 968L533 914L394 745Z"></glyph>
<glyph unicode="&#xca;" glyph-name="Ecircumflex" d="M471 949L573 794L505 746L403 862L268 746L207 796L355 949H471ZM40 0L156 698H597L579 591H266L236 407H536L518 300H218L186 107H499L481 0H40Z"></glyph>
<glyph unicode="&#xcb;" glyph-name="Edieresis" d="M40 0L156 698H597L579 591H266L236 407H536L518 300H218L186 107H499L481 0H40ZM286 770Q248 770 233 784T218 819Q218 824 219 831T223 851Q229 877 245 891T299 906Q337 906 352 892T367 857Q367 852 366
845T362 825Q356 799 340 785T286 770ZM495 770Q457 770 442 784T427 819Q427 824 428 831T432 851Q438 877 454 891T508 906Q546 906 561 892T576 857Q576 852 575 845T571 825Q565 799 549 785T495 770Z"></glyph>
<glyph unicode="&#xcc;" glyph-name="Igrave" d="M35 0L51 97H209L293 601H135L151 698H595L579 601H421L337 97H495L479 0H35ZM264 919L373 968L443 778L366 745L264 919Z"></glyph>
<glyph unicode="&#xcd;" glyph-name="Iacute" d="M35 0L51 97H209L293 601H135L151 698H595L579 601H421L337 97H495L479 0H35ZM392 745L318 785L431 968L531 914L392 745Z"></glyph>
<glyph unicode="&#xce;" glyph-name="Icircumflex" d="M35 0L51 97H209L293 601H135L151 698H595L579 601H421L337 97H495L479 0H35ZM469 949L571 794L503 746L401 862L266 746L205 796L353 949H469Z"></glyph>
<glyph unicode="&#xcf;" glyph-name="Idieresis" d="M35 0L51 97H209L293 601H135L151 698H595L579 601H421L337 97H495L479 0H35ZM284 770Q246 770 231 784T216 819Q216 824 217 831T221 851Q227 877 243 891T297 906Q335 906 350 892T365 857Q365 852 364 845T360
825Q354 799 338 785T284 770ZM493 770Q455 770 440 784T425 819Q425 824 426 831T430 851Q436 877 452 891T506 906Q544 906 559 892T574 857Q574 852 573 845T569 825Q563 799 547 785T493 770Z"></glyph>
<glyph unicode="&#xd0;" glyph-name="Eth" d="M87 320H23L39 417H103L150 698H346Q461 698 521 633T581 451Q581 342 559 258T495 117T392 30T251 0H34L87 320ZM255 104Q327 104 369 147T426 279L446 396Q449 414 450 433T452 470Q452 594 333 594H261L231 413H349L334
323H216L179 104H255Z"></glyph>
<glyph unicode="&#xd1;" glyph-name="Ntilde" d="M467 768Q443 768 426 775T392 791Q374 801 357 807T321 814Q304 814 290 808T258 787L222 846Q242 872 271 889T338 907Q362 907 379 900T413 884Q431 874 448 868T484 861Q501 861 515 867T547 888L583 829Q563
803 534 786T467 768ZM232 508H223L139 0H26L142 698H302L400 190H409L493 698H606L490 0H330L232 508Z"></glyph>
<glyph unicode="&#xd2;" glyph-name="Ograve" d="M252 919L361 968L431 778L354 745L252 919ZM273 -12Q154 -12 99 55T44 243Q44 325 60 408T113 559T209 668T356 710Q475 710 530 643T585 455Q585 373 569 290T516 139T420 30T273 -12ZM275 94Q343 94 378 145T429
290L449 407Q455 447 455 483Q455 540 431 572T354 604Q286 604 251 553T200 408L180 291Q174 250 174 215Q174 158 198 126T275 94Z"></glyph>
<glyph unicode="&#xd3;" glyph-name="Oacute" d="M380 745L306 785L419 968L519 914L380 745ZM273 -12Q154 -12 99 55T44 243Q44 325 60 408T113 559T209 668T356 710Q475 710 530 643T585 455Q585 373 569 290T516 139T420 30T273 -12ZM275 94Q343 94 378 145T429
290L449 407Q455 447 455 483Q455 540 431 572T354 604Q286 604 251 553T200 408L180 291Q174 250 174 215Q174 158 198 126T275 94Z"></glyph>
<glyph unicode="&#xd4;" glyph-name="Ocircumflex" d="M457 949L559 794L491 746L389 862L254 746L193 796L341 949H457ZM273 -12Q154 -12 99 55T44 243Q44 325 60 408T113 559T209 668T356 710Q475 710 530 643T585 455Q585 373 569 290T516 139T420 30T273 -12ZM275
94Q343 94 378 145T429 290L449 407Q455 447 455 483Q455 540 431 572T354 604Q286 604 251 553T200 408L180 291Q174 250 174 215Q174 158 198 126T275 94Z"></glyph>
<glyph unicode="&#xd5;" glyph-name="Otilde" d="M273 -12Q154 -12 99 55T44 243Q44 325 60 408T113 559T209 668T356 710Q475 710 530 643T585 455Q585 373 569 290T516 139T420 30T273 -12ZM275 94Q343 94 378 145T429 290L449 407Q455 447 455 483Q455 540
431 572T354 604Q286 604 251 553T200 408L180 291Q174 250 174 215Q174 158 198 126T275 94ZM454 768Q430 768 413 775T379 791Q361 801 344 807T308 814Q291 814 277 808T245 787L209 846Q229 872 258 889T325 907Q349 907 366 900T400 884Q418 874 435 868T471
861Q488 861 502 867T534 888L570 829Q550 803 521 786T454 768Z"></glyph>
<glyph unicode="&#xd6;" glyph-name="Odieresis" d="M273 -12Q154 -12 99 55T44 243Q44 325 60 408T113 559T209 668T356 710Q475 710 530 643T585 455Q585 373 569 290T516 139T420 30T273 -12ZM275 94Q343 94 378 145T429 290L449 407Q455 447 455 483Q455 540
431 572T354 604Q286 604 251 553T200 408L180 291Q174 250 174 215Q174 158 198 126T275 94ZM272 770Q234 770 219 784T204 819Q204 824 205 831T209 851Q215 877 231 891T285 906Q323 906 338 892T353 857Q353 852 352 845T348 825Q342 799 326 785T272 770ZM481
770Q443 770 428 784T413 819Q413 824 414 831T418 851Q424 877 440 891T494 906Q532 906 547 892T562 857Q562 852 561 845T557 825Q551 799 535 785T481 770Z"></glyph>
<glyph unicode="&#xd7;" glyph-name="multiply" d="M300 232L124 82L58 158L236 310L112 460L194 529L318 379L494 529L560 453L382 301L506 151L424 82L300 232Z"></glyph>
<glyph unicode="&#xd8;" glyph-name="Oslash" d="M273 -12Q183 -12 128 29L63 -58L-16 -7L69 104Q55 132 50 167T44 243Q44 325 60 408T113 559T209 668T356 710Q446 710 501 669L566 756L645 705L560 594Q574 566 579 531T585 455Q585 373 569 290T516 139T420
30T273 -12ZM179 301Q175 280 174 264T172 234V229L433 572Q408 605 354 605Q286 605 250 554T197 410L179 301ZM275 93Q343 93 379 144T432 288L450 397Q454 418 455 434T457 464V469L196 126Q221 93 275 93Z"></glyph>
<glyph unicode="&#xd9;" glyph-name="Ugrave" d="M261 919L370 968L440 778L363 745L261 919ZM264 698L194 277Q189 245 186 218T182 174Q182 137 202 116T276 94Q313 94 336 105T373 138T395 190T409 259L482 698H610L540 277Q528 208 513 155T468 64T393 8T272
-12Q211 -12 170 1T104 37T67 94T56 169Q56 197 60 230T70 301L136 698H264Z"></glyph>
<glyph unicode="&#xda;" glyph-name="Uacute" d="M264 698L194 277Q189 245 186 218T182 174Q182 137 202 116T276 94Q313 94 336 105T373 138T395 190T409 259L482 698H610L540 277Q528 208 513 155T468 64T393 8T272 -12Q211 -12 170 1T104 37T67 94T56 169Q56
197 60 230T70 301L136 698H264ZM389 745L315 785L428 968L528 914L389 745Z"></glyph>
<glyph unicode="&#xdb;" glyph-name="Ucircumflex" d="M466 949L568 794L500 746L398 862L263 746L202 796L350 949H466ZM264 698L194 277Q189 245 186 218T182 174Q182 137 202 116T276 94Q313 94 336 105T373 138T395 190T409 259L482 698H610L540 277Q528 208
513 155T468 64T393 8T272 -12Q211 -12 170 1T104 37T67 94T56 169Q56 197 60 230T70 301L136 698H264Z"></glyph>
<glyph unicode="&#xdc;" glyph-name="Udieresis" d="M264 698L194 277Q189 245 186 218T182 174Q182 137 202 116T276 94Q313 94 336 105T373 138T395 190T409 259L482 698H610L540 277Q528 208 513 155T468 64T393 8T272 -12Q211 -12 170 1T104 37T67 94T56 169Q56
197 60 230T70 301L136 698H264ZM281 770Q243 770 228 784T213 819Q213 824 214 831T218 851Q224 877 240 891T294 906Q332 906 347 892T362 857Q362 852 361 845T357 825Q351 799 335 785T281 770ZM490 770Q452 770 437 784T422 819Q422 824 423 831T427 851Q433
877 449 891T503 906Q541 906 556 892T571 857Q571 852 570 845T566 825Q560 799 544 785T490 770Z"></glyph>
<glyph unicode="&#xdd;" glyph-name="Yacute" d="M194 0L236 254L82 698H219L274 528L313 384H321L410 528L519 698H664L365 258L322 0H194ZM385 745L311 785L424 968L524 914L385 745Z"></glyph>
<glyph unicode="&#xde;" glyph-name="Thorn" d="M38 0L154 698H282L261 570H384Q430 570 464 557T522 520T556 463T568 391Q568 333 551 287T503 208T426 158T325 140H189L166 0H38ZM207 246H312Q364 246 391 265T426 329L432 365Q433 370 434 379T435 396Q435
432 414 448T348 465H243L207 246Z"></glyph>
<glyph unicode="&#xdf;" glyph-name="germandbls" d="M30 0L130 603Q141 669 182 704T292 740H431L415 641H261L240 516H572L555 419L375 209Q448 197 489 156T530 43Q530 -15 509 -60T450 -137T357 -184T235 -200H165L181 -101H242Q311 -101 349 -77T397 3Q401
26 401 35T402 49Q402 92 370 110T270 128H248L265 227L428 417H223L154 0H30Z"></glyph>
<glyph unicode="&#xe0;" glyph-name="agrave" d="M357 0L377 122H373Q358 92 342 68T304 26T257 -2T197 -12Q117 -12 80 41T43 188Q43 257 58 319T104 427T180 501T283 528Q343 528 376 501T422 422H427L443 516H569L483 0H357ZM251 88Q280 88 303 101T348 139Q362
156 377 182T398 243L413 337Q421 380 398 404T323 428Q262 428 229 392T186 295L175 229Q173 220 172 209T171 185Q171 142 189 115T251 88ZM222 749L331 798L401 608L324 575L222 749Z"></glyph>
<glyph unicode="&#xe1;" glyph-name="aacute" d="M357 0L377 122H373Q358 92 342 68T304 26T257 -2T197 -12Q117 -12 80 41T43 188Q43 257 58 319T104 427T180 501T283 528Q343 528 376 501T422 422H427L443 516H569L483 0H357ZM251 88Q280 88 303 101T348 139Q362
156 377 182T398 243L413 337Q421 380 398 404T323 428Q262 428 229 392T186 295L175 229Q173 220 172 209T171 185Q171 142 189 115T251 88ZM350 575L276 615L389 798L489 744L350 575Z"></glyph>
<glyph unicode="&#xe2;" glyph-name="acircumflex" d="M357 0L377 122H373Q358 92 342 68T304 26T257 -2T197 -12Q117 -12 80 41T43 188Q43 257 58 319T104 427T180 501T283 528Q343 528 376 501T422 422H427L443 516H569L483 0H357ZM251 88Q280 88 303 101T348
139Q362 156 377 182T398 243L413 337Q421 380 398 404T323 428Q262 428 229 392T186 295L175 229Q173 220 172 209T171 185Q171 142 189 115T251 88ZM427 779L529 624L461 576L359 692L224 576L163 626L311 779H427Z"></glyph>
<glyph unicode="&#xe3;" glyph-name="atilde" d="M357 0L377 122H373Q358 92 342 68T304 26T257 -2T197 -12Q117 -12 80 41T43 188Q43 257 58 319T104 427T180 501T283 528Q343 528 376 501T422 422H427L443 516H569L483 0H357ZM251 88Q280 88 303 101T348 139Q362
156 377 182T398 243L413 337Q421 380 398 404T323 428Q262 428 229 392T186 295L175 229Q173 220 172 209T171 185Q171 142 189 115T251 88ZM418 598Q394 598 377 605T343 621Q325 631 308 637T272 644Q255 644 241 638T209 617L173 676Q193 702 222 719T289 737Q313
737 330 730T364 714Q382 704 399 698T435 691Q452 691 466 697T498 718L534 659Q514 633 485 616T418 598Z"></glyph>
<glyph unicode="&#xe4;" glyph-name="adieresis" d="M357 0L377 122H373Q358 92 342 68T304 26T257 -2T197 -12Q117 -12 80 41T43 188Q43 257 58 319T104 427T180 501T283 528Q343 528 376 501T422 422H427L443 516H569L483 0H357ZM251 88Q280 88 303 101T348
139Q362 156 377 182T398 243L413 337Q421 380 398 404T323 428Q262 428 229 392T186 295L175 229Q173 220 172 209T171 185Q171 142 189 115T251 88ZM242 600Q204 600 189 614T174 649Q174 654 175 661T179 681Q185 707 201 721T255 736Q293 736 308 722T323 687Q323
682 322 675T318 655Q312 629 296 615T242 600ZM451 600Q413 600 398 614T383 649Q383 654 384 661T388 681Q394 707 410 721T464 736Q502 736 517 722T532 687Q532 682 531 675T527 655Q521 629 505 615T451 600Z"></glyph>
<glyph unicode="&#xe5;" glyph-name="aring" d="M357 0L377 122H373Q358 92 342 68T304 26T257 -2T197 -12Q117 -12 80 41T43 188Q43 257 58 319T104 427T180 501T283 528Q343 528 376 501T422 422H427L443 516H569L483 0H357ZM251 88Q280 88 303 101T348 139Q362
156 377 182T398 243L413 337Q421 380 398 404T323 428Q262 428 229 392T186 295L175 229Q173 220 172 209T171 185Q171 142 189 115T251 88ZM338 558Q312 558 290 567T252 591T226 628T217 675Q217 708 229 735T263 783T313 814T374 825Q400 825 422 816T460 791T486
754T495 708Q495 675 483 648T449 600T399 569T338 558ZM346 624Q398 624 407 677Q412 705 412 718Q412 759 366 759Q314 759 305 706Q300 678 300 665Q300 624 346 624Z"></glyph>
<glyph unicode="&#xe6;" glyph-name="ae" d="M113 -12Q61 -12 28 20T-5 119Q-5 203 50 250T204 299L251 300L258 346Q260 357 261 365T262 381Q262 414 247 430T205 447Q174 447 153 428T115 373L46 416Q73 474 113 501T210 528Q261 528 291 507T326 443H330Q351
481 385 504T469 528Q529 528 564 493T599 398Q599 370 589 341T550 288T471 247T342 229L340 216Q338 202 337 188T336 164Q336 121 351 97T398 73Q429 73 447 95T481 152L561 117Q535 57 495 23T391 -12Q336 -12 297 17T252 110H247Q218 -12 113 -12ZM143 68Q176
68 198 94T229 170L239 230L202 229Q157 227 129 211T94 153Q92 139 92 131T91 120Q91 94 105 81T143 68ZM456 448Q418 448 393 411T356 311L354 299Q397 300 426 308T473 330T498 359T506 395Q506 448 456 448Z"></glyph>
<glyph unicode="&#xe7;" glyph-name="ccedilla" d="M342 528Q429 528 475 492T536 399L433 352Q421 389 399 407T332 425Q282 425 249 393T205 298L195 238Q193 227 192 215T191 191Q191 143 215 117T292 91Q308 91 323 94T356 110T395 144T445 205L526 154Q503
117 479 88T428 38T370 5T302 -11L285 -57L288 -61Q299 -57 309 -56T328 -55Q356 -55 374 -70T393 -114Q393 -138 383 -156T354 -186T312 -204T259 -210Q217 -210 190 -197T149 -166L196 -117Q204 -127 219 -136T257 -145Q278 -145 292 -138T306 -114Q306 -103
293 -92T240 -77L216 -75L240 -10Q152 -1 107 55T62 206Q62 274 81 333T137 435T225 503T342 528Z"></glyph>
<glyph unicode="&#xe8;" glyph-name="egrave" d="M280 -12Q170 -12 116 45T61 209Q61 280 82 339T143 440T237 505T359 528Q398 528 431 519T490 493T530 449T545 387Q545 357 532 327T481 271T373 229T188 207Q187 201 187 197T187 189Q187 143 210 115T295 87Q319
87 338 91T374 107T409 137T447 182L527 131Q506 100 483 74T430 28T364 -1T280 -12ZM347 436Q290 436 253 404T200 297L197 282Q274 286 318 296T386 319T415 347T422 377Q422 404 405 420T347 436ZM240 749L349 798L419 608L342 575L240 749Z"></glyph>
<glyph unicode="&#xe9;" glyph-name="eacute" d="M368 575L294 615L407 798L507 744L368 575ZM280 -12Q170 -12 116 45T61 209Q61 280 82 339T143 440T237 505T359 528Q398 528 431 519T490 493T530 449T545 387Q545 357 532 327T481 271T373 229T188 207Q187
201 187 197T187 189Q187 143 210 115T295 87Q319 87 338 91T374 107T409 137T447 182L527 131Q506 100 483 74T430 28T364 -1T280 -12ZM347 436Q290 436 253 404T200 297L197 282Q274 286 318 296T386 319T415 347T422 377Q422 404 405 420T347 436Z"></glyph>
<glyph unicode="&#xea;" glyph-name="ecircumflex" d="M445 779L547 624L479 576L377 692L242 576L181 626L329 779H445ZM280 -12Q170 -12 116 45T61 209Q61 280 82 339T143 440T237 505T359 528Q398 528 431 519T490 493T530 449T545 387Q545 357 532 327T481
271T373 229T188 207Q187 201 187 197T187 189Q187 143 210 115T295 87Q319 87 338 91T374 107T409 137T447 182L527 131Q506 100 483 74T430 28T364 -1T280 -12ZM347 436Q290 436 253 404T200 297L197 282Q274 286 318 296T386 319T415 347T422 377Q422 404 405
420T347 436Z"></glyph>
<glyph unicode="&#xeb;" glyph-name="edieresis" d="M260 600Q222 600 207 614T192 649Q192 654 193 661T197 681Q203 707 219 721T273 736Q311 736 326 722T341 687Q341 682 340 675T336 655Q330 629 314 615T260 600ZM469 600Q431 600 416 614T401 649Q401 654
402 661T406 681Q412 707 428 721T482 736Q520 736 535 722T550 687Q550 682 549 675T545 655Q539 629 523 615T469 600ZM280 -12Q170 -12 116 45T61 209Q61 280 82 339T143 440T237 505T359 528Q398 528 431 519T490 493T530 449T545 387Q545 357 532 327T481
271T373 229T188 207Q187 201 187 197T187 189Q187 143 210 115T295 87Q319 87 338 91T374 107T409 137T447 182L527 131Q506 100 483 74T430 28T364 -1T280 -12ZM347 436Q290 436 253 404T200 297L197 282Q274 286 318 296T386 319T415 347T422 377Q422 404 405
420T347 436Z"></glyph>
<glyph unicode="&#xec;" glyph-name="igrave" d="M290 -12Q236 -12 208 16T180 93Q180 107 182 122T189 161L238 416H72L89 516H382L301 94L320 88L477 239L547 176L477 102Q421 42 379 15T290 -12ZM210 749L319 798L389 608L312 575L210 749Z"></glyph>
<glyph unicode="&#xed;" glyph-name="iacute" d="M338 575L264 615L377 798L477 744L338 575ZM290 -12Q236 -12 208 16T180 93Q180 107 182 122T189 161L238 416H72L89 516H382L301 94L320 88L477 239L547 176L477 102Q421 42 379 15T290 -12Z"></glyph>
<glyph unicode="&#xee;" glyph-name="icircumflex" d="M415 779L517 624L449 576L347 692L212 576L151 626L299 779H415ZM290 -12Q236 -12 208 16T180 93Q180 107 182 122T189 161L238 416H72L89 516H382L301 94L320 88L477 239L547 176L477 102Q421 42 379 15T290 -12Z"></glyph>
<glyph unicode="&#xef;" glyph-name="idieresis" d="M230 600Q192 600 177 614T162 649Q162 654 163 661T167 681Q173 707 189 721T243 736Q281 736 296 722T311 687Q311 682 310 675T306 655Q300 629 284 615T230 600ZM439 600Q401 600 386 614T371 649Q371 654
372 661T376 681Q382 707 398 721T452 736Q490 736 505 722T520 687Q520 682 519 675T515 655Q509 629 493 615T439 600ZM290 -12Q236 -12 208 16T180 93Q180 107 182 122T189 161L238 416H72L89 516H382L301 94L320 88L477 239L547 176L477 102Q421 42 379 15T290
-12Z"></glyph>
<glyph unicode="&#xf0;" glyph-name="eth" d="M458 647Q502 593 530 519T559 348Q559 258 537 191T476 78T380 11T256 -12Q153 -12 97 46T40 202Q40 266 59 321T111 416T191 478T291 501Q346 501 382 476T435 407L442 410Q435 457 413 502T355 590L252 532L214
588L307 640Q245 697 167 740H361Q373 730 385 720T411 697L509 753L546 697L458 647ZM271 85Q328 85 364 118T412 215L421 269Q423 281 424 290T425 307Q425 355 397 379T321 403Q264 403 228 370T180 273L171 219Q169 207 168 198T167 181Q167 133 195 109T271
85Z"></glyph>
<glyph unicode="&#xf1;" glyph-name="ntilde" d="M35 0L121 516H247L227 394H232Q260 455 299 491T401 528Q437 528 463 517T507 485T532 438T541 379Q541 342 531 283L484 0H358L407 295Q409 309 411 325T414 357Q414 385 399 407T347 429Q318 429 297 416T257
379Q246 365 229 337T206 272L161 0H35ZM423 598Q399 598 382 605T348 621Q330 631 313 637T277 644Q260 644 246 638T214 617L178 676Q198 702 227 719T294 737Q318 737 335 730T369 714Q387 704 404 698T440 691Q457 691 471 697T503 718L539 659Q519 633 490
616T423 598Z"></glyph>
<glyph unicode="&#xf2;" glyph-name="ograve" d="M265 -12Q214 -12 174 3T106 48T64 118T49 209Q49 283 70 342T129 442T219 506T335 528Q386 528 426 513T494 468T536 398T551 307Q551 233 530 174T471 74T381 10T265 -12ZM274 85Q330 85 363 118T408 214L420
285Q422 297 423 309T425 330Q425 381 399 406T326 431Q270 431 237 398T192 302L180 231Q178 219 177 207T175 186Q175 135 201 110T274 85ZM237 749L346 798L416 608L339 575L237 749Z"></glyph>
<glyph unicode="&#xf3;" glyph-name="oacute" d="M365 575L291 615L404 798L504 744L365 575ZM265 -12Q214 -12 174 3T106 48T64 118T49 209Q49 283 70 342T129 442T219 506T335 528Q386 528 426 513T494 468T536 398T551 307Q551 233 530 174T471 74T381 10T265
-12ZM274 85Q330 85 363 118T408 214L420 285Q422 297 423 309T425 330Q425 381 399 406T326 431Q270 431 237 398T192 302L180 231Q178 219 177 207T175 186Q175 135 201 110T274 85Z"></glyph>
<glyph unicode="&#xf4;" glyph-name="ocircumflex" d="M442 779L544 624L476 576L374 692L239 576L178 626L326 779H442ZM265 -12Q214 -12 174 3T106 48T64 118T49 209Q49 283 70 342T129 442T219 506T335 528Q386 528 426 513T494 468T536 398T551 307Q551 233
530 174T471 74T381 10T265 -12ZM274 85Q330 85 363 118T408 214L420 285Q422 297 423 309T425 330Q425 381 399 406T326 431Q270 431 237 398T192 302L180 231Q178 219 177 207T175 186Q175 135 201 110T274 85Z"></glyph>
<glyph unicode="&#xf5;" glyph-name="otilde" d="M265 -12Q214 -12 174 3T106 48T64 118T49 209Q49 283 70 342T129 442T219 506T335 528Q386 528 426 513T494 468T536 398T551 307Q551 233 530 174T471 74T381 10T265 -12ZM274 85Q330 85 363 118T408 214L420
285Q422 297 423 309T425 330Q425 381 399 406T326 431Q270 431 237 398T192 302L180 231Q178 219 177 207T175 186Q175 135 201 110T274 85ZM433 598Q409 598 392 605T358 621Q340 631 323 637T287 644Q270 644 256 638T224 617L188 676Q208 702 237 719T304 737Q328
737 345 730T379 714Q397 704 414 698T450 691Q467 691 481 697T513 718L549 659Q529 633 500 616T433 598Z"></glyph>
<glyph unicode="&#xf6;" glyph-name="odieresis" d="M257 600Q219 600 204 614T189 649Q189 654 190 661T194 681Q200 707 216 721T270 736Q308 736 323 722T338 687Q338 682 337 675T333 655Q327 629 311 615T257 600ZM466 600Q428 600 413 614T398 649Q398 654
399 661T403 681Q409 707 425 721T479 736Q517 736 532 722T547 687Q547 682 546 675T542 655Q536 629 520 615T466 600ZM265 -12Q214 -12 174 3T106 48T64 118T49 209Q49 283 70 342T129 442T219 506T335 528Q386 528 426 513T494 468T536 398T551 307Q551 233
530 174T471 74T381 10T265 -12ZM274 85Q330 85 363 118T408 214L420 285Q422 297 423 309T425 330Q425 381 399 406T326 431Q270 431 237 398T192 302L180 231Q178 219 177 207T175 186Q175 135 201 110T274 85Z"></glyph>
<glyph unicode="&#xf7;" glyph-name="divide" d="M63 255L79 356H554L538 255H63ZM267 37Q228 37 212 51T195 87Q195 93 196 102T199 122Q204 149 223 166T285 184Q324 184 340 170T357 134Q357 128 356 119T353 99Q348 72 329 55T267 37ZM332 427Q293 427 277
441T260 477Q260 483 261 492T264 512Q269 539 288 556T350 574Q389 574 405 560T422 524Q422 518 421 509T418 489Q413 462 394 445T332 427Z"></glyph>
<glyph unicode="&#xf8;" glyph-name="oslash" d="M-10 2L76 90Q63 115 56 144T49 209Q49 283 70 342T129 442T219 506T335 528Q417 528 472 487L549 567L610 514L524 426Q537 401 544 372T551 307Q551 233 530 174T471 74T381 10T265 -12Q183 -12 128 29L51 -51L-10
2ZM326 431Q270 431 236 398T192 303L180 231Q178 221 177 209T175 190V184L394 410Q370 431 326 431ZM274 85Q331 85 364 118T408 213L420 285Q422 296 423 308T425 326V332L206 106Q230 85 274 85Z"></glyph>
<glyph unicode="&#xf9;" glyph-name="ugrave" d="M373 122H368Q339 60 300 24T199 -12Q163 -12 137 -1T93 31T68 78T59 137Q59 174 69 233L116 516H242L193 221Q191 207 189 191T186 159Q186 131 201 109T253 87Q282 87 303 100T343 137Q354 151 371 179T394 244L439
516H565L479 0H353L373 122ZM232 749L341 798L411 608L334 575L232 749Z"></glyph>
<glyph unicode="&#xfa;" glyph-name="uacute" d="M360 575L286 615L399 798L499 744L360 575ZM373 122H368Q339 60 300 24T199 -12Q163 -12 137 -1T93 31T68 78T59 137Q59 174 69 233L116 516H242L193 221Q191 207 189 191T186 159Q186 131 201 109T253 87Q282
87 303 100T343 137Q354 151 371 179T394 244L439 516H565L479 0H353L373 122Z"></glyph>
<glyph unicode="&#xfb;" glyph-name="ucircumflex" d="M437 779L539 624L471 576L369 692L234 576L173 626L321 779H437ZM373 122H368Q339 60 300 24T199 -12Q163 -12 137 -1T93 31T68 78T59 137Q59 174 69 233L116 516H242L193 221Q191 207 189 191T186 159Q186
131 201 109T253 87Q282 87 303 100T343 137Q354 151 371 179T394 244L439 516H565L479 0H353L373 122Z"></glyph>
<glyph unicode="&#xfc;" glyph-name="udieresis" d="M252 600Q214 600 199 614T184 649Q184 654 185 661T189 681Q195 707 211 721T265 736Q303 736 318 722T333 687Q333 682 332 675T328 655Q322 629 306 615T252 600ZM461 600Q423 600 408 614T393 649Q393 654
394 661T398 681Q404 707 420 721T474 736Q512 736 527 722T542 687Q542 682 541 675T537 655Q531 629 515 615T461 600ZM373 122H368Q339 60 300 24T199 -12Q163 -12 137 -1T93 31T68 78T59 137Q59 174 69 233L116 516H242L193 221Q191 207 189 191T186 159Q186
131 201 109T253 87Q282 87 303 100T343 137Q354 151 371 179T394 244L439 516H565L479 0H353L373 122Z"></glyph>
<glyph unicode="&#xfd;" glyph-name="yacute" d="M214 -212Q145 -212 96 -196T12 -138L89 -59Q112 -87 143 -99T212 -112Q242 -112 266 -105T309 -81T340 -33T360 42L376 139H371Q357 108 341 83T304 41T258 14T202 4Q166 4 140 15T96 47T71 94T62 153Q62 173
64 194T71 247L116 516H242L195 236Q193 222 191 207T189 176Q189 148 204 126T256 104Q285 104 306 117T346 153Q357 167 373 195T396 260L439 516H565L483 25Q463 -98 394 -155T214 -212ZM369 575L295 615L408 798L508 744L369 575Z"></glyph>
<glyph unicode="&#xfe;" glyph-name="thorn" d="M154 740H280L222 394H227Q242 424 258 448T296 490T343 518T403 528Q483 528 520 475T557 328Q557 259 542 197T496 89T420 15T317 -12Q257 -12 224 15T178 94H172L123 -200H-3L154 740ZM277 88Q338 88 371 124T414
221L424 283Q426 292 427 305T429 331Q429 374 411 401T349 428Q320 428 297 415T252 377Q238 360 223 334T202 273L187 179Q179 136 202 112T277 88Z"></glyph>
<glyph unicode="&#xff;" glyph-name="ydieresis" d="M214 -212Q145 -212 96 -196T12 -138L89 -59Q112 -87 143 -99T212 -112Q242 -112 266 -105T309 -81T340 -33T360 42L376 139H371Q357 108 341 83T304 41T258 14T202 4Q166 4 140 15T96 47T71 94T62 153Q62 173
64 194T71 247L116 516H242L195 236Q193 222 191 207T189 176Q189 148 204 126T256 104Q285 104 306 117T346 153Q357 167 373 195T396 260L439 516H565L483 25Q463 -98 394 -155T214 -212ZM261 600Q223 600 208 614T193 649Q193 654 194 661T198 681Q204 707 220
721T274 736Q312 736 327 722T342 687Q342 682 341 675T337 655Q331 629 315 615T261 600ZM470 600Q432 600 417 614T402 649Q402 654 403 661T407 681Q413 707 429 721T483 736Q521 736 536 722T551 687Q551 682 550 675T546 655Q540 629 524 615T470 600Z"></glyph>
<glyph unicode="&#x2013;" glyph-name="endash" d="M63 252L80 357H555L538 252H63Z"></glyph>
<glyph unicode="&#x2014;" glyph-name="emdash" d="M3 252L20 357H615L598 252H3Z"></glyph>
<glyph unicode="&#x2018;" glyph-name="quoteleft" d="M370 740H469L363 430H194L370 740Z"></glyph>
<glyph unicode="&#x2019;" glyph-name="quoteright" d="M336 740H505L329 430H230L336 740Z"></glyph>
<glyph unicode="&#x201a;" glyph-name="quotesinglbase" d="M232 162H401L225 -148H126L232 162Z"></glyph>
<glyph unicode="&#x201c;" glyph-name="quotedblleft" d="M513 740H612L506 430H337L513 740ZM506 740H605L499 430H330L506 740Z"></glyph>
<glyph unicode="&#x201d;" glyph-name="quotedblright" d="M470 740H639L463 430H364L470 740ZM462 740H631L455 430H356L462 740Z"></glyph>
<glyph unicode="&#x201e;" glyph-name="quotedblbase" d="M367 162H536L360 -148H261L367 162ZM360 162H529L353 -148H254L360 162Z"></glyph>
<glyph unicode="&#x2022;" glyph-name="bullet" d="M290 166Q219 166 190 194T161 265Q161 272 162 283T167 319Q176 373 213 407T327 442Q398 442 427 414T456 343Q456 336 455 325T450 289Q441 235 404 201T290 166Z"></glyph>
<glyph unicode="&#x2039;" glyph-name="guilsinglleft" d="M336 47L164 217L183 331L403 496L435 413L276 267L387 123L336 47Z"></glyph>
<glyph unicode="&#x203a;" glyph-name="guilsinglright" d="M166 130L325 276L214 420L265 496L437 326L418 212L198 47L166 130Z"></glyph>
</font>
</defs>
</svg>
